<?xml version="1.0" encoding="UTF-8"?><svg id="Calque_2" xmlns="http://www.w3.org/2000/svg" viewBox="0 0 283.47 503.21"><g id="Calque_1-2"><path d="m141.67,0C175.42,0,209.17,0,242.92,0c9.29,0,10.93,2.7,7.36,11.18-9.76,23.19-11.12,46.58-1.74,70.34,8.47,21.46,17.43,42.78,24.6,64.69,8.92,27.27,12.95,55.63,8.51,84.17-8.45,54.35-38.17,92.4-89.95,112.32-3.44,1.32-5.34,2.68-6.67,6.61-1.68,4.96-4.93,9.82-8.66,13.57-14.48,14.53-12.47,10.26-12.59,30.24-.09,15.47.11,30.95-.08,46.42-.08,6.61,2.71,10.9,8.41,14,17.36,9.44,34.7,18.91,51.81,28.77,4.21,2.43,7.95,6.04,11.1,9.79,1.51,1.79,2.23,5.74,1.26,7.68-.92,1.84-4.52,3.28-6.94,3.29-57.86.18-115.71.18-173.57,0-2.45,0-6.43-1.51-6.97-3.19-.8-2.48-.12-6.79,1.66-8.5,5.11-4.89,10.72-9.5,16.8-13.07,14.17-8.32,28.65-16.14,43.18-23.81,6.22-3.29,8.74-7.98,8.68-14.85-.16-19.13-.14-38.27,0-57.4.04-5.27-1.42-9.57-5.05-13.55-5.77-6.31-12.48-12.13-13.43-21.61-.11-1.1-2.48-2.35-4.02-2.88-49.55-16.84-80.16-51.23-92.75-101.58-6.8-27.19-3.68-54.52,2.17-81.58,4.77-22.04,13.58-42.67,21.87-63.51,4.53-11.37,8.98-22.99,11.42-34.92,3.69-18.06.22-35.71-7.27-52.52C28.95,3.18,30.86.03,38.42.02,72.84-.01,107.25,0,141.67,0ZM44.91,11.35c8.92,25.53,9.54,50.53-.31,74.93,5.3,1.78,10.13,3.06,14.65,5.05,2.59,1.14,3.99.79,6.05-.99,17.85-15.44,45.33-18.65,66.29-7.63,3.16,1.66,5.31,1.72,8.48-.04,16.07-8.92,31.28-5.46,42.1,9.17.58.78,1.22,1.52,2.04,2.54,16.86-7.1,34.06-12.22,51.39-9.8-1.59-12.34-4.46-24.45-4.35-36.53.12-12.24,3.19-24.45,4.97-36.71H44.91Zm212.33,122.55c-3.66-9.2-7.94-17.74-10.4-26.77-2.62-9.6-9.1-11.62-17.41-11.86-.83-.02-1.66-.04-2.49-.04-12.73-.07-24.5,3.9-36.12,8.54-10.12,4.04-11.29,3.65-17.67-5.35-6.61-9.33-15.25-11.72-25.67-6.98-2.1.96-4.25,2.06-5.96,3.57-3.8,3.34-7.03,2.92-11.08.06-18.54-13.04-47.73-9.05-61.9,8.33-2.8,3.43-5.47,3.62-9.01,1.29-2.88-1.9-5.91-3.78-9.14-4.92-9.38-3.34-10.05-2.92-13.81,6.18-1.97,4.76-3.96,9.51-5.84,14.3-1.73,4.44-3.32,8.93-5.07,13.66h231.56Zm-2.75,75.03c-.22-4.32-.09-8.68-.71-12.94-1.61-10.99-3.45-21.95-5.4-32.89-.63-3.57-3.03-5.72-6.81-4.82-3.4.81-4.76,3.36-4.09,6.85.25,1.3.56,2.6.85,3.89,7.54,33.52,8.21,66.24-11.09,96.7-1.97,3.11-1.68,6.18,1.68,8.16,3.73,2.2,6.25.23,8.2-2.97,11.55-19.04,17.61-39.63,17.38-61.98Zm-70.05,105.81c1.99-.54,2.83-.67,3.58-.99,12.3-5.28,23.25-12.6,32.68-22.12,2.45-2.47,2.86-5.35.38-7.94-2.67-2.8-5.54-2.2-8.35.16-4.55,3.83-8.96,7.91-13.87,11.22-4.91,3.31-10.57,5.51-15.47,8.83-1.75,1.18-3.21,4.28-3.03,6.35.15,1.75,2.88,3.27,4.07,4.49Z"/></g></svg>